<?xml version="1.0" encoding="utf-8"?>
<!-- Generator: Adobe Illustrator 23.0.5, SVG Export Plug-In . SVG Version: 6.00 Build 0)  -->
<svg version="1.1" id="Layer_1" xmlns="http://www.w3.org/2000/svg" xmlns:xlink="http://www.w3.org/1999/xlink" x="0px" y="0px"
	 viewBox="0 0 228.2 59.4" style="enable-background:new 0 0 228.2 59.4;" xml:space="preserve">
<style type="text/css">
	.st0{fill:#FFFFFF;}
	.st1{fill:#005288;}
	.st2{fill:#FFFFFF;stroke:#FFFFFF;stroke-miterlimit:10;}
</style>
<g>
	<g id="hvit_logo">
		<path class="st0" d="M54.1,12.3H35.2l-0.7,0.5v16.8h5.2v-6.3l0.5-0.4H54c3.5,0,5.1-0.9,5.1-3.3v-3.8
			C59.2,13.3,57.6,12.3,54.1,12.3 M54.1,18.5c0,1.1-0.8,1.4-2.4,1.4H40.3l-0.6-0.5v-3.6l0.5-0.5h11.4c1.6,0,2.4,0.2,2.4,1.4
			L54.1,18.5L54.1,18.5z"/>
		<polyline class="st0" points="68.7,15.5 73.2,22.1 72.9,22.7 63,22.7 60.5,25.8 75.2,25.8 76.3,26.4 78.6,29.6 84.5,29.6 
			71.5,12.1 		"/>
		<polyline class="st0" points="128,26.2 128,21.5 128.5,21.1 138.5,21.1 138.5,18.1 122.7,18.1 122.7,29.6 146,29.6 146,26.6 
			128.6,26.6 		"/>
		<rect x="122.7" y="12.3" class="st0" width="23.6" height="3.3"/>
		<path class="st0" d="M96.4,15.4h19c-0.3-2.4-1.8-3.1-5.6-3.1H96.2c-4.3,0-5.7,0.8-5.7,4.1v9.1c0,3.2,1.4,4.1,5.7,4.1h13.6
			c3.9,0,5.3-0.7,5.4-3.2H96.4l-0.6-0.5V15.8"/>
		<path class="st0" d="M21.9,19.1H8l-0.4-0.4v-3L8,15.3h18.6l0.3-0.6c-0.6-1.6-2.3-2.4-5.3-2.4H8.7c-4.3,0-5.7,0.8-5.7,4.1v1.9
			c0,3.3,1.4,4.1,5.7,4.1h13.8l0.4,0.4v3.1l-0.4,0.5H6.8l0,0H2.6c0,0-0.5,0.2-0.5,0.3C2.5,29,4,29.6,7.7,29.6h14.1
			c4.3,0,5.7-0.8,5.7-4.1v-2.4C27.6,19.9,26.1,19.1,21.9,19.1"/>
		<path class="st0" d="M161.1,12.2h-7.8l-0.4,0.8l8.6,6.3c1.6-0.9,3.4-1.9,5.3-2.8"/>
		<path class="st0" d="M168.1,24.1l7.6,5.5h7.9l0.3-0.7l-11.3-8.3C171,21.7,169.5,22.9,168.1,24.1"/>
		<path class="st1" d="M160,29.6h-7l-0.6-0.9c4.8-4.6,26.1-24.4,72.5-26.5C224.9,2.2,185.9,3.5,160,29.6"/>
	</g>
	<g>
		<path class="st2" d="M32.5,48.5c0,2.7-0.7,4.6-2,5.8c-1.2,1.1-3.2,1.7-5.9,1.7h-6.8V41.3l4.9-0.1c2.2,0,3.9,0.1,5,0.4
			c1.6,0.4,2.8,1,3.5,2C32,44.7,32.5,46.3,32.5,48.5z M23.1,43h-3.3v11.2h4.7c2.2,0,3.7-0.4,4.6-1.1c1-0.8,1.5-2.3,1.5-4.4
			c0-2.4-0.7-4-2-4.8C27.5,43.3,25.7,43,23.1,43z"/>
		<path class="st2" d="M46.5,41.3V43H36.1v4.5h6.1v1.8h-6.1v4.9h10.5V56H34.1V41.3H46.5z"/>
		<path class="st2" d="M50.3,55.9h-2V41.3h10.3c1.3,0,2.1,0.3,2.5,1c0.3,0.5,0.5,1.4,0.5,2.8c0,0.2,0,0.4,0,0.6c0,0.2,0,0.4,0,0.6
			c0,1.6-0.3,2.6-0.8,3.1c-0.5,0.4-1.2,0.6-2.2,0.6h-8.3V55.9z M57.8,43h-7.5v5.2H58c0.7,0,1.2-0.1,1.4-0.4c0.2-0.2,0.3-0.6,0.3-1.2
			c0-0.1,0-0.3,0-0.6s0-0.5,0-0.7c0-1-0.1-1.6-0.2-1.8C59.2,43.2,58.7,43,57.8,43z"/>
		<path class="st2" d="M71.6,41.3L79.1,56h-2.2l-2-3.7h-8.2l-2,3.7h-2.1l7.5-14.7H71.6z M74.1,50.4L70.9,44l-3.2,6.4H74.1z"/>
		<path class="st2" d="M94.2,55.9h-2.7l-5.9-6h-3.2v6h-2V41.3h10.3c1.3,0,2.1,0.3,2.5,1c0.3,0.5,0.5,1.4,0.5,2.8v2.3
			c0,0.8-0.2,1.4-0.7,1.9c-0.6,0.5-1.6,0.8-3.1,0.8c-0.3,0-0.5,0-0.8,0s-0.5,0-0.8,0L94.2,55.9z M89.9,43h-7.5v5.2h7.7
			c0.7,0,1.2-0.1,1.4-0.4c0.2-0.2,0.3-0.6,0.3-1.2c0-0.1,0-0.3,0-0.6s0-0.5,0-0.7c0-1-0.1-1.6-0.2-1.8C91.4,43.2,90.8,43,89.9,43z"
			/>
		<path class="st2" d="M109,41.3V43h-6v12.9h-2V43h-6v-1.8L109,41.3L109,41.3z"/>
		<path class="st2" d="M110.3,54.2V41.3h2v12.9h9.5V41.3h2v12.9c0,0.6-0.2,1.1-0.5,1.4c-0.3,0.3-0.8,0.4-1.5,0.4h-9.5
			c-0.7,0-1.2-0.1-1.5-0.3C110.5,55.3,110.3,54.9,110.3,54.2z"/>
		<path class="st2" d="M139.6,55.9h-2.7l-5.9-6h-3.2v6h-2V41.3h10.3c1.3,0,2.1,0.3,2.5,1c0.3,0.5,0.5,1.4,0.5,2.8v2.3
			c0,0.8-0.2,1.4-0.7,1.9c-0.6,0.5-1.6,0.8-3.1,0.8c-0.3,0-0.5,0-0.8,0s-0.5,0-0.8,0L139.6,55.9z M135.3,43h-7.5v5.2h7.7
			c0.7,0,1.2-0.1,1.4-0.4c0.2-0.2,0.3-0.6,0.3-1.2c0-0.1,0-0.3,0-0.6s0-0.5,0-0.7c0-1-0.1-1.6-0.2-1.8C136.8,43.2,136.2,43,135.3,43
			z"/>
		<path class="st2" d="M153.5,41.3V43h-10.4v4.5h6.1v1.8h-6.1v4.9h10.5V56h-12.5V41.3H153.5z"/>
		<path class="st2" d="M155,53.6v-1.2l2-0.3v2.1h9.5v-5h-9.1c-0.8,0-1.4-0.2-1.7-0.5c-0.2-0.3-0.3-0.8-0.3-1.5c0-0.2,0-0.4,0-0.6
			s0-0.4,0-0.6v-3c0-0.7,0.1-1.2,0.4-1.4c0.3-0.2,0.8-0.4,1.5-0.4h9c0.9,0,1.4,0.1,1.6,0.4s0.3,0.9,0.3,1.7v1l-2,0.3V43h-8.9v4.4
			h9.1c0.8,0,1.4,0.2,1.7,0.5c0.2,0.3,0.3,0.8,0.3,1.5c0,0.2,0,0.4,0,0.7c0,0.2,0,0.5,0,0.7v3.4c0,0.6-0.2,1.1-0.5,1.4
			c-0.3,0.3-0.8,0.4-1.5,0.4H157c-0.9,0-1.4-0.2-1.6-0.5C155.2,55.2,155,54.5,155,53.6z"/>
	</g>
</g>
</svg>
